<?xml version="1.0" standalone="no"?>
<!DOCTYPE svg PUBLIC "-//W3C//DTD SVG 20010904//EN"
 "http://www.w3.org/TR/2001/REC-SVG-20010904/DTD/svg10.dtd">
<svg version="1.0" xmlns="http://www.w3.org/2000/svg"
 width="200.000000pt" height="200.000000pt" viewBox="0 0 200.000000 200.000000"
 preserveAspectRatio="xMidYMid meet">
<metadata>
Created by potrace 1.11, written by Peter Selinger 2001-2013
</metadata>
<g transform="translate(0.000000,200.000000) scale(0.100000,-0.100000)"
fill="#000000" stroke="none">
<path d="M1264 1820 c-23 -25 -33 -30 -54 -25 -79 21 -130 28 -195 28 -70 -1
-184 -11 -196 -19 -5 -3 -19 -7 -30 -9 -135 -26 -345 -178 -437 -318 -146
-220 -170 -519 -61 -755 81 -177 217 -313 393 -392 182 -83 397 -89 589 -16
298 112 494 388 503 706 3 105 -7 173 -37 268 l-21 63 39 52 c56 74 65 91 51
105 -21 21 -38 13 -74 -38 -20 -27 -40 -50 -44 -50 -5 0 -18 17 -31 38 -12 20
-30 46 -40 57 -18 20 -17 22 31 88 53 71 60 91 35 101 -24 9 -38 -2 -78 -59
-21 -30 -41 -55 -45 -55 -4 1 -26 18 -49 39 l-42 38 43 59 c52 70 60 98 30
102 -16 2 -35 -14 -74 -63 -50 -63 -53 -65 -74 -50 -11 8 -38 22 -58 31 -43
19 -43 17 -23 48 14 21 13 24 -4 40 -19 17 -21 16 -47 -14z"/>
</g>
</svg>
